<svg width="262" height="59" viewBox="0 0 262 59" fill="none" xmlns="http://www.w3.org/2000/svg">
<path d="M229.477 22.5079V16.9316H223.903V11.624H229.477V5.84601H234.581V11.624H240.625V16.9316H234.581V22.4407" fill="white"/>
<path d="M38.9525 12.8333C40.43 13.6395 41.6388 14.8488 42.5119 16.3941C43.385 18.0065 43.7878 19.8877 43.7878 22.172V36.6841H39.7584V22.7767C39.7584 20.358 39.154 18.4768 37.9452 17.1331C36.7364 15.8566 35.1246 15.1847 33.0428 15.1847C30.9608 15.1847 29.2148 15.8566 28.006 17.2003C26.73 18.544 26.1255 20.5596 26.1255 23.1126V36.6841H22.0962V22.7767C22.0962 20.358 21.4917 18.4768 20.2829 17.1331C19.0741 15.8566 17.4623 15.1847 15.3805 15.1847C13.2985 15.1847 11.5525 15.8566 10.3437 17.2003C9.06768 18.544 8.46328 20.5596 8.46328 23.1126V36.6841H4.3667V12.0942H8.46328V15.6551C9.26916 14.3786 10.3437 13.3708 11.6868 12.6989C13.03 12.0271 14.5746 11.6912 16.1863 11.6912C18.2682 11.6912 20.0815 12.1614 21.626 13.102C23.2379 14.0426 24.3795 15.3863 25.1854 17.2003C25.8569 15.4535 26.9986 14.1098 28.6103 13.1692C30.2222 12.2286 31.9682 11.7584 33.9158 11.7584C35.7962 11.6912 37.4751 12.0942 38.9525 12.8333Z" fill="white"/>
<path d="M66.0167 18.6112C65.3451 17.469 64.405 16.6629 63.1961 16.0582C61.9873 15.4535 60.7113 15.1848 59.301 15.1848C57.2192 15.1848 55.473 15.8566 54.0628 17.1332C52.5853 18.4769 51.7795 20.2908 51.578 22.5751H67.0913C67.0913 21.0299 66.6883 19.6862 66.0167 18.6112ZM71.1206 25.9344H51.5108C51.6451 28.3531 52.5181 30.2343 53.9956 31.578C55.473 32.9217 57.3534 33.5935 59.5025 33.5935C61.2486 33.5935 62.726 33.1904 63.9349 32.3843C65.1436 31.578 65.9496 30.4358 66.4197 29.0922H70.7848C70.1133 31.4436 68.8373 33.392 66.8226 34.8701C64.875 36.3481 62.3902 37.0872 59.5025 37.0872C57.152 37.0872 55.0701 36.5497 53.2569 35.5419C51.4437 34.467 49.9662 32.9889 48.9588 31.1077C47.8843 29.1593 47.4142 26.9422 47.4142 24.3892C47.4142 21.8362 47.9515 19.619 48.9588 17.7378C49.9662 15.8566 51.3765 14.3786 53.2569 13.3036C55.0701 12.2958 57.2192 11.7584 59.5697 11.7584C61.9873 11.7584 63.9349 12.2958 65.7481 13.3036C67.5613 14.3114 68.9045 15.7223 69.9118 17.469C70.852 19.2831 71.3893 21.2315 71.3893 23.5158C71.255 24.2548 71.255 25.061 71.1206 25.9344Z" fill="white"/>
<path d="M93.2152 19.4846C92.4763 18.1409 91.4694 17.0659 90.1934 16.3268C88.9175 15.5879 87.5071 15.2519 86.0295 15.2519C84.4849 15.2519 83.1418 15.5879 81.8658 16.3268C80.5898 17.0659 79.5824 18.0737 78.8438 19.4846C78.105 20.8282 77.7021 22.5079 77.7021 24.3219C77.7021 26.2031 78.105 27.8156 78.8438 29.2264C79.5824 30.6374 80.5898 31.6451 81.8658 32.3842C83.1418 33.1232 84.4849 33.4591 86.0295 33.4591C87.5743 33.4591 88.9175 33.1232 90.1934 32.3842C91.4694 31.6451 92.4763 30.5702 93.2152 29.2264C93.954 27.8156 94.3566 26.2031 94.3566 24.3891C94.2902 22.5079 93.954 20.8954 93.2152 19.4846ZM75.0158 17.6706C76.0232 15.7893 77.4334 14.3113 79.1796 13.2363C80.9256 12.1614 82.9403 11.6911 85.1565 11.6911C87.0368 11.6911 88.8502 12.1614 90.4615 13.0348C92.0737 13.9082 93.3497 15.0504 94.223 16.5284V3.49448H98.3189V36.684H94.223V32.0482C93.4169 33.5263 92.2082 34.7356 90.6633 35.6763C89.052 36.6168 87.2383 37.0871 85.0893 37.0871C82.9403 37.0871 80.9256 36.5496 79.1796 35.4747C77.3663 34.3997 76.0232 32.9217 75.0158 30.9732C74.0085 29.0249 73.4712 26.8078 73.4712 24.3219C73.5384 21.8361 74.0085 19.6189 75.0158 17.6706Z" fill="white"/>
<path d="M107.789 12.0942V36.684H103.692V12.0942H107.789ZM103.893 7.32406C103.356 6.78658 103.087 6.11473 103.087 5.37569C103.087 4.56946 103.356 3.9648 103.893 3.42732C104.431 2.88984 105.102 2.62109 105.841 2.62109C106.647 2.62109 107.251 2.88984 107.721 3.42732C108.258 3.9648 108.527 4.63665 108.527 5.37569C108.527 6.18191 108.258 6.78658 107.721 7.32406C107.184 7.86154 106.58 8.13028 105.841 8.13028C105.102 8.13028 104.431 7.86154 103.893 7.32406Z" fill="white"/>
<path d="M116.989 36.0794C115.444 35.4075 114.236 34.3998 113.362 33.1904C112.49 31.9811 112.019 30.6374 111.953 29.1593H117.257C117.325 30.2343 117.862 31.1077 118.735 31.7796C119.676 32.4514 120.817 32.8545 122.16 32.8545C123.503 32.8545 124.712 32.5857 125.518 32.0483C126.324 31.5108 126.727 30.7718 126.727 29.8983C126.727 28.9578 126.257 28.2859 125.384 27.8156C124.51 27.3453 123.1 26.8751 121.22 26.3376C119.339 25.8001 117.862 25.3297 116.72 24.8594C115.579 24.3892 114.572 23.6501 113.698 22.6423C112.825 21.6346 112.422 20.358 112.422 18.7456C112.422 17.4019 112.825 16.2598 113.564 15.1176C114.37 14.0427 115.444 13.1692 116.922 12.5645C118.4 11.9598 120.011 11.624 121.891 11.624C124.712 11.624 126.996 12.363 128.674 13.7739C130.353 15.1848 131.293 17.1331 131.428 19.5518H126.324C126.257 18.4769 125.786 17.5362 124.981 16.9316C124.175 16.2598 123.1 15.9238 121.69 15.9238C120.28 15.9238 119.339 16.1926 118.6 16.6629C117.862 17.2003 117.526 17.8722 117.526 18.6784C117.526 19.3503 117.795 19.8877 118.265 20.358C118.735 20.8283 119.339 21.1643 120.011 21.433C120.682 21.7018 121.69 22.0376 123.033 22.3736C124.847 22.8439 126.324 23.3142 127.466 23.8517C128.607 24.322 129.615 25.061 130.42 26.0016C131.226 26.9422 131.696 28.2187 131.696 29.8311C131.696 31.2421 131.293 32.5185 130.555 33.5936C129.749 34.6685 128.674 35.5419 127.264 36.2138C125.853 36.8185 124.175 37.1543 122.295 37.1543C120.414 37.1543 118.533 36.7513 116.989 36.0794Z" fill="white"/>
<path d="M170.111 12.7661C171.655 13.5723 172.863 14.7816 173.737 16.3269C174.61 17.9394 175.08 19.8205 175.08 22.0376V36.6169H170.043V22.9111C170.043 20.694 169.505 19.0144 168.364 17.805C167.29 16.5957 165.745 16.0582 163.864 16.0582C161.984 16.0582 160.439 16.6629 159.298 17.805C158.156 19.0144 157.619 20.694 157.619 22.9111V36.7513H152.582V22.9111C152.582 20.694 152.045 19.0144 150.903 17.805C149.829 16.5957 148.284 16.0582 146.404 16.0582C144.524 16.0582 142.979 16.6629 141.837 17.805C140.696 19.0144 140.158 20.694 140.158 22.9111V36.7513H135.054V11.9598H140.158V14.7816C140.964 13.7739 142.038 12.9676 143.315 12.4301C144.591 11.8926 146 11.5568 147.411 11.5568C149.358 11.5568 151.172 11.9598 152.716 12.8333C154.261 13.6395 155.47 14.916 156.276 16.4613C157.015 14.9832 158.156 13.7739 159.768 12.9005C161.38 12.027 163.058 11.5568 164.872 11.5568C166.82 11.5568 168.566 11.9598 170.111 12.7661Z" fill="white"/>
<path d="M198.048 19.8877C197.376 18.6112 196.435 17.6706 195.294 16.9987C194.153 16.3269 192.944 15.991 191.601 15.991C190.257 15.991 189.049 16.3269 187.906 16.9315C186.765 17.6034 185.825 18.544 185.154 19.7533C184.482 20.9627 184.079 22.4407 184.079 24.1876C184.079 25.8672 184.415 27.4125 185.154 28.689C185.825 29.9655 186.765 30.9733 187.906 31.6452C189.049 32.317 190.257 32.6529 191.533 32.6529C192.809 32.6529 194.085 32.317 195.227 31.6452C196.368 30.9733 197.309 30.0327 197.98 28.7562C198.652 27.4796 199.055 26.0016 199.055 24.3219C199.122 22.6423 198.786 21.0971 198.048 19.8877ZM180.453 17.6034C181.46 15.7222 182.87 14.177 184.683 13.1692C186.43 12.0942 188.444 11.5568 190.593 11.5568C192.54 11.5568 194.22 11.9598 195.697 12.6989C197.174 13.438 198.317 14.3785 199.189 15.5207V11.9598H204.36V36.6841H199.189V32.9888C198.317 34.131 197.107 35.1388 195.63 35.8778C194.153 36.6841 192.407 37.0199 190.526 37.0199C188.377 37.0199 186.43 36.4825 184.683 35.4075C182.937 34.3326 181.527 32.7873 180.52 30.8389C179.512 28.8906 178.975 26.6735 178.975 24.1876C178.908 21.769 179.445 19.5518 180.453 17.6034Z" fill="white"/>
<path d="M216.784 12.6317C217.993 11.9598 219.47 11.5568 221.217 11.5568V16.8644H219.94C217.926 16.8644 216.449 17.4019 215.374 18.4097C214.367 19.4174 213.829 21.1643 213.829 23.7173V36.7513H208.726V11.9598H213.829V15.5207C214.568 14.3113 215.575 13.3036 216.784 12.6317Z" fill="white"/>
<path d="M239.685 45.7541H237.469C236.394 45.7541 235.655 45.4854 235.252 44.8807C234.85 44.3432 234.581 43.4026 234.581 42.1261V25.0611H229.41V42.1261C229.41 45.4854 230.014 47.9713 231.223 49.4493C232.432 50.9274 234.245 51.7336 236.528 51.7336H239.685C239.416 50.8602 239.282 49.8524 239.282 48.7102C239.349 47.5681 239.484 46.6275 239.685 45.7541Z" fill="white"/>
<path d="M244.386 49.7179C244.722 49.382 244.856 48.8445 244.856 48.1055C244.856 47.4336 244.722 46.8961 244.386 46.493C244.05 46.1571 243.647 45.9555 243.177 45.9555C242.707 45.9555 242.304 46.1571 241.968 46.493C241.632 46.829 241.499 47.3665 241.499 48.1055C241.499 48.7773 241.632 49.3148 241.968 49.7179C242.304 50.0539 242.707 50.2554 243.177 50.2554C243.647 50.2554 244.05 50.0539 244.386 49.7179ZM240.356 52.6741C239.55 52.271 238.946 51.6663 238.476 50.86C238.006 50.0539 237.804 49.1804 237.804 48.1055C237.804 47.0305 238.006 46.1571 238.476 45.3509C238.946 44.5447 239.55 43.94 240.356 43.5368C241.162 43.1338 242.103 42.9323 243.11 42.9323C244.118 42.9323 245.057 43.1338 245.863 43.5368C246.67 43.94 247.274 44.5447 247.744 45.3509C248.214 46.1571 248.415 47.0305 248.415 48.1055C248.415 49.1804 248.214 50.0539 247.744 50.86C247.274 51.6663 246.67 52.271 245.796 52.6741C244.99 53.0772 244.05 53.2788 243.043 53.2788C242.103 53.346 241.162 53.1444 240.356 52.6741Z" fill="white"/>
<path d="M199.592 49.5164H203.151V51.2633H197.376V40.3792H199.592V49.5164Z" fill="white"/>
<path d="M206.711 42.5963V51.2632H204.494V42.5963H206.711ZM204.696 41.1855C204.427 40.9167 204.293 40.648 204.293 40.2448C204.293 39.9089 204.427 39.573 204.696 39.3042C204.964 39.0355 205.301 38.9683 205.636 38.9683C206.039 38.9683 206.375 39.1026 206.576 39.3042C206.845 39.573 206.979 39.8417 206.979 40.2448C206.979 40.5808 206.845 40.9167 206.576 41.1855C206.307 41.4541 205.972 41.5213 205.636 41.5213C205.233 41.5885 204.964 41.4541 204.696 41.1855Z" fill="white"/>
<path d="M212.486 49.2477L214.636 42.5964H216.986L213.762 51.2633H211.143L207.987 42.5964H210.27L212.486 49.2477Z" fill="white"/>
<path d="M223.97 46.1572C223.97 45.6197 223.769 45.1494 223.365 44.8134C222.963 44.4775 222.493 44.2759 221.888 44.2759C221.351 44.2759 220.881 44.4103 220.545 44.7462C220.142 45.0822 219.94 45.5525 219.874 46.09H223.97V46.1572ZM226.186 47.568H219.874C219.94 48.1727 220.142 48.7102 220.545 49.0461C220.948 49.382 221.418 49.5836 221.955 49.5836C222.761 49.5836 223.365 49.2476 223.702 48.5087H226.052C225.783 49.3148 225.313 50.0539 224.641 50.5914C223.903 51.1289 223.097 51.3976 222.022 51.3976C221.216 51.3976 220.478 51.1961 219.807 50.8601C219.135 50.5242 218.664 49.9867 218.262 49.3148C217.926 48.643 217.725 47.8368 217.725 46.9634C217.725 46.09 217.926 45.2837 218.262 44.6119C218.597 43.94 219.135 43.4026 219.807 43.0666C220.478 42.7307 221.216 42.5291 222.09 42.5291C222.963 42.5291 223.634 42.7307 224.306 43.0666C224.978 43.4026 225.447 43.94 225.85 44.5447C226.186 45.2166 226.388 45.9556 226.388 46.7618C226.254 47.0305 226.254 47.3665 226.186 47.568Z" fill="white"/>
<path d="M254.527 40.9167C254.056 40.4464 253.317 40.4464 252.78 40.9167C252.31 41.387 252.31 42.1261 252.78 42.6635C256.004 45.9556 255.936 51.3305 252.646 54.5554C252.378 54.7569 252.31 55.0928 252.31 55.4287C252.31 55.7647 252.445 56.0334 252.646 56.3022C253.116 56.7725 253.855 56.7725 254.392 56.3022C258.623 52.1367 258.757 45.2166 254.527 40.9167Z" fill="white"/>
<path d="M251.236 44.2088C250.765 43.7385 250.027 43.7385 249.49 44.2088C249.02 44.679 249.02 45.4181 249.49 45.9556C250.967 47.4336 250.9 49.8523 249.422 51.2632C249.154 51.4648 249.087 51.8007 249.087 52.1366C249.087 52.4725 249.221 52.7413 249.422 53.01C249.893 53.4804 250.632 53.4804 251.169 53.01C253.586 50.5914 253.586 46.6275 251.236 44.2088Z" fill="white"/>
</svg>
